<svg width="31" height="21" viewBox="0 0 31 21" fill="none" xmlns="http://www.w3.org/2000/svg">
<path d="M15.9101 12.93H19.8101V16.2H15.5201L14.9201 21H11.5301L12.1301 16.2H7.72008L7.12008 21H3.76008L4.36008 16.2H0.430078V12.93H4.75008L5.38008 8.07H1.45008V4.8H5.77008L6.37008 -1.43051e-06H9.73008L9.13008 4.8H13.5401L14.1401 -1.43051e-06H17.5001L16.9001 4.8H20.8001L20.8301 8.07H16.5101L15.9101 12.93ZM12.5201 12.93L13.1501 8.07H8.74008L8.11008 12.93H12.5201ZM30.6919 -1.43051e-06V21H25.8319V3.9H21.6319V-1.43051e-06H30.6919Z" fill="#8ED74F"/>
</svg>
