<svg width="39" height="22" viewBox="0 0 39 22" fill="none" xmlns="http://www.w3.org/2000/svg">
<path d="M15.9364 13.93H19.8364V17.2H15.5464L14.9464 22H11.5564L12.1564 17.2H7.74645L7.14645 22H3.78645L4.38645 17.2H0.456445V13.93H4.77645L5.40645 9.07H1.47645V5.8H5.79645L6.39645 0.999999H9.75645L9.15645 5.8H13.5664L14.1664 0.999999H17.5264L16.9264 5.8H20.8264L20.8564 9.07H16.5364L15.9364 13.93ZM12.5464 13.93L13.1764 9.07H8.76645L8.13645 13.93H12.5464ZM38.3082 18.04V22H22.4382V18.85L30.5382 11.2C31.3982 10.38 31.9782 9.68 32.2782 9.1C32.5782 8.5 32.7282 7.91 32.7282 7.33C32.7282 6.49 32.4382 5.85 31.8582 5.41C31.2982 4.95 30.4682 4.72 29.3682 4.72C28.4482 4.72 27.6182 4.9 26.8782 5.26C26.1382 5.6 25.5182 6.12 25.0182 6.82L21.4782 4.54C22.2982 3.32 23.4282 2.37 24.8682 1.69C26.3082 0.989999 27.9582 0.64 29.8182 0.64C31.3782 0.64 32.7382 0.899999 33.8982 1.42C35.0782 1.92 35.9882 2.64 36.6282 3.58C37.2882 4.5 37.6182 5.59 37.6182 6.85C37.6182 7.99 37.3782 9.06 36.8982 10.06C36.4182 11.06 35.4882 12.2 34.1082 13.48L29.2782 18.04H38.3082Z" fill="#8ED74F"/>
</svg>
