<svg width="39" height="22" viewBox="0 0 39 22" fill="none" xmlns="http://www.w3.org/2000/svg">
<path d="M15.9071 12.93H19.8071V16.2H15.5171L14.9171 21H11.5271L12.1271 16.2H7.71715L7.11715 21H3.75715L4.35715 16.2H0.427148V12.93H4.74715L5.37715 8.07H1.44715V4.8H5.76715L6.36715 -1.43051e-06H9.72715L9.12715 4.8H13.5371L14.1371 -1.43051e-06H17.4971L16.8971 4.8H20.7972L20.8271 8.07H16.5072L15.9071 12.93ZM12.5171 12.93L13.1471 8.07H8.73715L8.10715 12.93H12.5171ZM32.3989 8.55C34.2389 8.85 35.6489 9.54 36.6289 10.62C37.6089 11.68 38.0989 13 38.0989 14.58C38.0989 15.8 37.7789 16.93 37.1389 17.97C36.4989 18.99 35.5189 19.81 34.1989 20.43C32.8989 21.05 31.2989 21.36 29.3989 21.36C27.9189 21.36 26.4589 21.17 25.0189 20.79C23.5989 20.39 22.3889 19.83 21.3889 19.11L23.2789 15.39C24.0789 15.99 24.9989 16.46 26.0389 16.8C27.0989 17.12 28.1789 17.28 29.2789 17.28C30.4989 17.28 31.4589 17.05 32.1589 16.59C32.8589 16.11 33.2089 15.44 33.2089 14.58C33.2089 12.86 31.8989 12 29.2789 12H27.0589V8.79L31.3789 3.9H22.4389V-1.43051e-06H37.1389V3.15L32.3989 8.55Z" fill="#8ED74F"/>
</svg>
