<svg width="43" height="21" viewBox="0 0 43 21" fill="none" xmlns="http://www.w3.org/2000/svg">
<path d="M16.4423 12.93H20.3423V16.2H16.0523L15.4523 21H12.0623L12.6623 16.2H8.25231L7.65231 21H4.29231L4.8923 16.2H0.962305V12.93H5.2823L5.9123 8.07H1.9823V4.8H6.30231L6.9023 -1.43051e-06H10.2623L9.6623 4.8H14.0723L14.6723 -1.43051e-06H18.0323L17.4323 4.8H21.3323L21.3623 8.07H17.0423L16.4423 12.93ZM13.0523 12.93L13.6823 8.07H9.27231L8.64231 12.93H13.0523ZM42.3541 16.59H38.9341V21H34.1941V16.59H22.8841V13.32L32.7841 -1.43051e-06H37.8841L28.7041 12.63H34.3441V8.7H38.9341V12.63H42.3541V16.59Z" fill="#8ED74F"/>
</svg>
