<svg width="54" height="57" viewBox="0 0 54 57" fill="none" xmlns="http://www.w3.org/2000/svg">
<path d="M20.3314 4.67077C20.7926 4.67077 21.1664 4.29695 21.1664 3.83581C21.1664 3.37468 20.7926 3.00085 20.3314 3.00085C19.8703 3.00085 19.4965 3.37468 19.4965 3.83581C19.4965 4.29695 19.8703 4.67077 20.3314 4.67077Z" fill="#FDFDFD"/>
<path d="M16.8372 27.4827H22.3653C22.6632 28.6963 23.7604 29.5992 25.0645 29.5992C26.3686 29.5992 27.4657 28.6962 27.7636 27.4827H30.2086C30.6698 27.4827 31.0436 27.1089 31.0436 26.6478V23.3696C31.0436 22.3361 30.236 21.4698 29.2051 21.3973L24.5675 21.0708L23.7509 19.1381H23.751C23.3379 18.1604 22.3849 17.5286 21.3234 17.5286C19.6303 17.5286 17.2705 17.5286 15.4377 17.5286C14.3704 17.5286 13.4156 18.1651 13.0051 19.1504L12.1931 21.0995L9.97487 21.3776C9.10885 21.4863 8.45569 22.2265 8.45569 23.0993V26.6478C8.45569 27.1089 8.82942 27.4827 9.29065 27.4827H11.4388C11.7367 28.6963 12.8339 29.5992 14.138 29.5992C15.4421 29.5992 16.5393 28.6962 16.8372 27.4827V27.4827ZM25.0646 27.9293C24.4531 27.9293 23.9555 27.4317 23.9555 26.8202C23.9555 26.2097 24.4591 25.7112 25.0646 25.7112C25.6691 25.7112 26.1736 26.2084 26.1736 26.8202C26.1736 27.4317 25.6761 27.9293 25.0646 27.9293ZM22.2128 19.7881L22.7388 21.0327H18.4704V19.1984H21.3236C21.7124 19.1984 22.0615 19.4298 22.2128 19.7881V19.7881ZM14.5467 19.7925C14.6971 19.4316 15.0469 19.1984 15.4378 19.1984H16.8004V21.0327H14.03L14.5467 19.7925ZM10.1257 23.0993C10.1257 23.0665 10.1503 23.0386 10.1828 23.0345L12.8298 22.7026H23.9686L29.088 23.063C29.2482 23.0743 29.3736 23.209 29.3736 23.3695V25.8127H27.6571C27.2552 24.764 26.2463 24.0411 25.0645 24.0411C23.8826 24.0411 22.8738 24.764 22.4719 25.8127H16.7308C16.3287 24.764 15.3199 24.0411 14.1381 24.0411C12.9562 24.0411 11.9474 24.764 11.5455 25.8127H10.1257V23.0993ZM14.1381 27.9293C13.5266 27.9293 13.029 27.4317 13.029 26.8202C13.029 26.2097 13.5326 25.7112 14.1381 25.7112C14.7415 25.7112 15.2471 26.2075 15.2471 26.8202C15.2471 27.4317 14.7496 27.9293 14.1381 27.9293Z" fill="#FDFDFD"/>
<path d="M32.014 17.8886L30.2859 14.8954C30.0268 14.4464 29.5626 14.1784 29.0441 14.1784C28.5258 14.1784 28.0615 14.4465 27.8025 14.8954L26.0743 17.8886C25.8151 18.3375 25.815 18.8735 26.0742 19.3225C26.3334 19.7715 26.7976 20.0395 27.316 20.0395H30.7725C31.2908 20.0395 31.755 19.7714 32.0142 19.3225C32.2734 18.8737 32.2732 18.3374 32.014 17.8886V17.8886ZM27.7246 18.3695L29.0441 16.0843L30.3634 18.3695H27.7246Z" fill="#FDFDFD"/>
<path d="M13.7006 30.7125H10.0465C9.58528 30.7125 9.21155 31.0863 9.21155 31.5475V35.2015C9.21155 35.6626 9.58528 36.0364 10.0465 36.0364H13.7005C14.1617 36.0364 14.5355 35.6626 14.5355 35.2015V31.5475C14.5356 31.0863 14.1617 30.7125 13.7006 30.7125ZM12.8657 34.3665H10.8815V32.3824H12.8656V34.3665H12.8657Z" fill="#FDFDFD"/>
<path d="M13.7006 37.1497H10.0465C9.58528 37.1497 9.21155 37.5235 9.21155 37.9846V41.6387C9.21155 42.0998 9.58528 42.4736 10.0465 42.4736H13.7005C14.1617 42.4736 14.5355 42.0998 14.5355 41.6387V37.9846C14.5356 37.5235 14.1617 37.1497 13.7006 37.1497ZM12.8657 40.8037H10.8815V38.8196H12.8656V40.8037H12.8657Z" fill="#FDFDFD"/>
<path d="M13.7006 43.5869H10.0465C9.58528 43.5869 9.21155 43.9607 9.21155 44.4218V48.0758C9.21155 48.537 9.58528 48.9108 10.0465 48.9108H13.7005C14.1617 48.9108 14.5355 48.537 14.5355 48.0758V44.4218C14.5356 43.9606 14.1617 43.5869 13.7006 43.5869ZM12.8657 47.2408H10.8815V45.2567H12.8656V47.2408H12.8657Z" fill="#FDFDFD"/>
<path d="M30.6163 30.7125H16.4839C16.0227 30.7125 15.6489 31.0863 15.6489 31.5475C15.6489 32.0086 16.0227 32.3824 16.4839 32.3824H30.6163C31.0775 32.3824 31.4513 32.0086 31.4513 31.5475C31.4513 31.0863 31.0774 30.7125 30.6163 30.7125Z" fill="#FDFDFD"/>
<path d="M16.4839 35.1656H26.3289C26.7902 35.1656 27.1639 34.7918 27.1639 34.3307C27.1639 33.8695 26.7902 33.4957 26.3289 33.4957H16.4839C16.0227 33.4957 15.6489 33.8695 15.6489 34.3307C15.6489 34.7918 16.0227 35.1656 16.4839 35.1656V35.1656Z" fill="#FDFDFD"/>
<path d="M30.6163 37.1497H16.4839C16.0227 37.1497 15.6489 37.5235 15.6489 37.9846C15.6489 38.4458 16.0227 38.8196 16.4839 38.8196H30.6163C31.0775 38.8196 31.4513 38.4458 31.4513 37.9846C31.4513 37.5235 31.0774 37.1497 30.6163 37.1497Z" fill="#FDFDFD"/>
<path d="M21.2648 39.9329H16.4839C16.0227 39.9329 15.6489 40.3067 15.6489 40.7679C15.6489 41.229 16.0227 41.6028 16.4839 41.6028H21.2648C21.726 41.6028 22.0997 41.229 22.0997 40.7679C22.0997 40.3067 21.7259 39.9329 21.2648 39.9329V39.9329Z" fill="#FDFDFD"/>
<path d="M52.2699 22.6801C51.241 21.6512 49.5754 21.6509 48.5462 22.6801L46.453 24.7732C46.2662 24.6335 46.0404 24.558 45.8029 24.558C45.5122 24.558 45.2388 24.6713 45.0329 24.8769C44.177 25.7328 41.5085 28.4013 40.6627 29.2471V7.11118C40.6627 6.16601 39.8938 5.39695 38.9486 5.39695H31.1481V5.10283C31.1481 4.03575 30.28 3.16761 29.2128 3.16761H24.2467C23.8579 1.34651 22.2139 0 20.3314 0C18.4487 0 16.8046 1.34662 16.4162 3.16772H11.45C10.3829 3.16772 9.51475 4.03586 9.51475 5.10294V5.39707H1.71423C0.769053 5.39707 0 6.16612 0 7.11129V55.2858C0 56.231 0.769053 57 1.71423 57H38.9486C39.8938 57 40.6627 56.231 40.6627 55.2858V39.3273L41.9882 38.0018C42.3143 37.6757 42.3143 37.147 41.9882 36.821C41.662 36.495 41.1334 36.495 40.8074 36.821C40.279 37.3494 36.392 41.2365 35.887 41.7415L33.2086 39.0631C33.3472 38.9245 42.6282 29.6434 42.6847 29.587L45.3631 32.2654L43.6539 33.9746C43.3278 34.3007 43.3278 34.8294 43.6539 35.1554C43.9801 35.4814 44.5087 35.4814 44.8348 35.1554L47.9329 32.0572L48.7184 32.8427L42.1003 39.4608C41.7742 39.7869 41.7742 40.3156 42.1003 40.6416C42.4265 40.9677 42.9551 40.9677 43.2812 40.6416L50.4897 33.4331C50.8157 33.107 50.8157 32.5783 50.4897 32.2524L49.1136 30.8764L50.0731 29.9169C50.4594 29.5304 50.4939 28.9231 50.1764 28.4972L52.2697 26.4039C53.2988 25.3747 53.2989 23.7093 52.2699 22.6801V22.6801ZM45.8029 26.4687C45.814 26.4798 48.6218 29.2877 48.4813 29.1471C47.7612 29.8672 47.2608 30.3676 46.544 31.0844L43.8655 28.406L45.8029 26.4687ZM38.9486 7.06698C38.973 7.06698 38.9928 7.08691 38.9928 7.11129V30.9171L37.2662 32.6437V9.62842C37.2662 9.1673 36.8925 8.79346 36.4313 8.79346H31.148V7.06698H38.9486ZM11.1847 5.10294C11.1847 4.95665 11.3037 4.83764 11.45 4.83764H16.623C17.3185 4.83764 17.9215 4.3252 18.0258 3.64566C18.198 2.51924 19.1893 1.66992 20.3314 1.66992C21.4734 1.66992 22.4646 2.51935 22.6371 3.64554C22.7411 4.3252 23.3441 4.83764 24.0398 4.83764H29.2128C29.3591 4.83764 29.4782 4.95665 29.4782 5.10294V7.97976H16.6741C16.2129 7.97976 15.8392 8.3536 15.8392 8.81472C15.8392 9.27584 16.2129 9.64968 16.6741 9.64968H29.4782V11.3951H11.1848V9.64968H12.7778C13.239 9.64968 13.6127 9.27584 13.6127 8.81472C13.6127 8.3536 13.239 7.97976 12.7778 7.97976H11.1848V5.10294H11.1847ZM32.0278 40.2438L34.7061 42.9223L28.7426 48.8858L26.0642 46.2073L32.0278 40.2438ZM23.7466 49.3351C23.9413 48.6103 24.3246 47.9469 24.8552 47.4165L24.8835 47.3882L27.5618 50.0666L27.5335 50.0949C27.003 50.6255 26.3396 51.0088 25.6151 51.2035L23.0606 51.8897L23.7466 49.3351ZM28.7143 51.2757C29.7661 50.2239 35.4651 44.525 35.5963 44.3938V51.9336H27.9322C28.2104 51.7376 28.4723 51.5177 28.7143 51.2757V51.2757ZM31.4373 38.4726C31.4367 38.4733 31.4359 38.474 31.4352 38.4748L26.3232 43.5869H16.4838C16.0225 43.5869 15.6488 43.9607 15.6488 44.4218C15.6488 44.883 16.0225 45.2568 16.4838 45.2568H24.6532C23.6129 46.2972 23.635 46.2733 23.5442 46.3701H16.4838C16.0225 46.3701 15.6488 46.7439 15.6488 47.205C15.6488 47.6662 16.0225 48.04 16.4838 48.04H22.4384C22.3153 48.3183 22.2134 48.6064 22.1339 48.9019L21.401 51.6303C21.374 51.7312 21.357 51.8326 21.3499 51.9336H5.06642V49.488C5.06642 49.0269 4.69269 48.6531 4.23146 48.6531C3.77023 48.6531 3.3965 49.0269 3.3965 49.488V52.7685C3.3965 53.2297 3.77023 53.6035 4.23146 53.6035H36.4313C36.8925 53.6035 37.2662 53.2297 37.2662 52.7685V42.7239L38.9928 40.9973V55.2858C38.9928 55.3102 38.9729 55.3301 38.9486 55.3301H1.71423C1.68974 55.3301 1.66992 55.3102 1.66992 55.2858V7.11118C1.66992 7.0868 1.68985 7.06687 1.71423 7.06687H9.51475V8.79346H4.23146C3.77023 8.79346 3.3965 9.1673 3.3965 9.62842V45.5915C3.3965 46.0526 3.77023 46.4264 4.23146 46.4264C4.69269 46.4264 5.06642 46.0526 5.06642 45.5915V10.4634H9.51475V11.8114C9.51475 12.5027 10.0772 13.065 10.7684 13.065H29.8944C30.5857 13.065 31.1481 12.5026 31.1481 11.8113V10.4634H35.5964V34.3135L31.4373 38.4726ZM51.0889 25.223L49.0039 27.3082C48.8587 27.163 49.4337 27.738 47.6418 25.9462L49.7268 23.861C50.1032 23.4847 50.7123 23.4844 51.0888 23.861C51.4653 24.2371 51.4656 24.8465 51.0889 25.223V25.223Z" fill="#FDFDFD"/>
<path d="M28.1523 46.7977C28.4784 47.1238 29.0069 47.1238 29.3331 46.7977L32.6183 43.5126C32.9444 43.1865 32.9444 42.6578 32.6183 42.3319C32.2922 42.0059 31.7636 42.0057 31.4374 42.3319L28.1523 45.6169C27.8262 45.943 27.8262 46.4717 28.1523 46.7977Z" fill="#FDFDFD"/>
</svg>
