<svg width="263" height="95" viewBox="0 0 263 95" fill="none" xmlns="http://www.w3.org/2000/svg">
<path d="M84.4 73.89H69.58V93H49.04V73.89H0.0300002V59.72L42.93 1.99999H65.03L25.25 56.73H49.69V39.7H69.58V56.73H84.4V73.89ZM129.699 94.56C122.159 94.56 115.442 92.6967 109.549 88.97C103.656 85.2433 99.0189 79.87 95.6389 72.85C92.3456 65.7433 90.6989 57.2933 90.6989 47.5C90.6989 37.7067 92.3456 29.3 95.6389 22.28C99.0189 15.1733 103.656 9.75666 109.549 6.03C115.442 2.30333 122.159 0.439998 129.699 0.439998C137.239 0.439998 143.956 2.30333 149.849 6.03C155.742 9.75666 160.336 15.1733 163.629 22.28C167.009 29.3 168.699 37.7067 168.699 47.5C168.699 57.2933 167.009 65.7433 163.629 72.85C160.336 79.87 155.742 85.2433 149.849 88.97C143.956 92.6967 137.239 94.56 129.699 94.56ZM129.699 76.75C135.246 76.75 139.579 74.3667 142.699 69.6C145.906 64.8333 147.509 57.4667 147.509 47.5C147.509 37.5333 145.906 30.1667 142.699 25.4C139.579 20.6333 135.246 18.25 129.699 18.25C124.239 18.25 119.906 20.6333 116.699 25.4C113.579 30.1667 112.019 37.5333 112.019 47.5C112.019 57.4667 113.579 64.8333 116.699 69.6C119.906 74.3667 124.239 76.75 129.699 76.75ZM262.261 73.89H247.441V93H226.901V73.89H177.891V59.72L220.791 1.99999H242.891L203.111 56.73H227.551V39.7H247.441V56.73H262.261V73.89Z" fill="#8ED74F"/>
</svg>
