<svg width="56" height="56" viewBox="0 0 56 56" fill="none" xmlns="http://www.w3.org/2000/svg">
<path d="M54.9698 42.0245H46.4812C45.4686 42.0236 44.4701 41.7879 43.564 41.336L42.9854 41.0463C41.8201 40.4658 40.5363 40.1629 39.2344 40.1612H27.9507C27.4979 40.1585 27.0617 39.9901 26.7246 39.6879C26.6493 39.6246 26.5789 39.5558 26.514 39.4819C26.2436 39.1531 26.0931 38.7421 26.0873 38.3164C26.0896 38.0838 26.1383 37.854 26.2305 37.6405C26.3226 37.4269 26.4564 37.2339 26.624 37.0726C27.0191 36.6698 27.5579 36.4403 28.1221 36.4344H38.1993C38.5644 36.4371 38.9263 36.3664 39.2635 36.2266C39.6008 36.0867 39.9065 35.8804 40.1624 35.6201C40.456 35.3338 40.6821 34.9856 40.8241 34.6008C40.9661 34.2161 41.0204 33.8045 40.9832 33.3961C40.9275 32.853 40.7145 32.3379 40.3705 31.9139C40.0265 31.49 39.5663 31.1755 39.0462 31.0091L42.3696 25.254H43.9656C44.6487 25.2532 45.3236 25.4031 45.9422 25.6929C46.5607 25.9828 47.1078 26.4056 47.5442 26.9311L48.8486 28.4982C49.4603 29.2339 50.2267 29.8256 51.0933 30.2311C51.9599 30.6367 52.9053 30.846 53.862 30.8442H54.9698C55.2169 30.8442 55.4539 30.7461 55.6286 30.5713C55.8034 30.3966 55.9015 30.1596 55.9015 29.9125C55.9015 29.6654 55.8034 29.4284 55.6286 29.2537C55.4539 29.079 55.2169 28.9808 54.9698 28.9808H53.862C53.1789 28.9817 52.504 28.8318 51.8854 28.5419C51.2669 28.252 50.7199 27.8293 50.2834 27.3038L48.979 25.7367C48.3674 25.001 47.6009 24.4092 46.7343 24.0037C45.8677 23.5982 44.9223 23.3889 43.9656 23.3907H43.4448L48.9716 13.8175C49.2201 13.3935 49.3824 12.9245 49.449 12.4376C49.5155 11.9506 49.4852 11.4553 49.3595 10.9801C49.2339 10.505 49.0155 10.0594 48.717 9.66893C48.4184 9.27851 48.0456 8.951 47.62 8.70525C47.1943 8.4595 46.7243 8.30037 46.2369 8.23702C45.7495 8.17367 45.2544 8.20735 44.7801 8.33613C44.3058 8.4649 43.8616 8.68622 43.4732 8.98735C43.0847 9.28848 42.7597 9.66347 42.5168 10.0907L34.8368 23.3907H32.6567C31.346 23.3925 30.0589 23.7391 28.9245 24.3955C27.7901 25.0519 26.8483 25.9951 26.1935 27.1305L20.4356 37.1508C20.2521 37.4692 20.1331 37.8206 20.0856 38.185C20.038 38.5493 20.0627 38.9195 20.1583 39.2743C20.2539 39.6291 20.4186 39.9616 20.6428 40.2527C20.8671 40.5438 21.1465 40.7878 21.4652 40.9708C22.1684 41.3793 22.9671 41.5947 23.7804 41.595C23.9721 41.5935 24.1635 41.5798 24.3534 41.554V41.5615C24.2966 41.6582 24.2584 41.7647 24.2407 41.8755L22.9363 49.7306C22.9054 49.9175 22.9323 50.1094 23.0133 50.2807C23.0943 50.452 23.2256 50.5945 23.3897 50.6893C23.5537 50.784 23.7428 50.8265 23.9317 50.811C24.1205 50.7955 24.3001 50.7228 24.4466 50.6026L30.5958 45.5426C30.6818 45.4716 30.7544 45.3858 30.8101 45.2892L32.6902 42.0245H39.2344C40.247 42.0255 41.2455 42.2612 42.1516 42.7131L42.7302 43.0028C43.8955 43.5833 45.1793 43.8862 46.4812 43.8879H54.9698C55.2169 43.8879 55.4539 43.7898 55.6286 43.615C55.8034 43.4403 55.9015 43.2033 55.9015 42.9562C55.9015 42.7091 55.8034 42.4722 55.6286 42.2974C55.4539 42.1227 55.2169 42.0245 54.9698 42.0245ZM38.095 32.7076C38.3412 32.6978 38.5825 32.7784 38.7733 32.9343C38.9642 33.0901 39.0914 33.3104 39.131 33.5536C39.1439 33.6909 39.1254 33.8293 39.077 33.9584C39.0285 34.0875 38.9515 34.2039 38.8515 34.2989C38.7671 34.3863 38.6657 34.4555 38.5535 34.5023C38.4414 34.5491 38.3208 34.5725 38.1993 34.571H36.9881L38.0642 32.7076H38.095ZM44.1305 11.0224C44.3793 10.5979 44.786 10.2891 45.2617 10.1633C45.7374 10.0376 46.2436 10.1051 46.6697 10.3511C47.0959 10.5971 47.4074 11.0017 47.5363 11.4766C47.6652 11.9515 47.6011 12.4581 47.3579 12.8858L45.4945 16.1132L42.2671 14.2498L44.1305 11.0224ZM41.3354 15.8672L44.5665 17.7306L34.8378 34.571H30.5343L41.3354 15.8672ZM22.395 39.3524C22.1809 39.2295 22.0243 39.0266 21.9597 38.7884C21.895 38.5501 21.9276 38.2959 22.0503 38.0816L27.81 28.0584C28.3008 27.2073 29.0068 26.5001 29.8571 26.0079C30.7074 25.5156 31.6723 25.2557 32.6548 25.254H33.7598L28.3821 34.571H28.1221C27.0608 34.5784 26.0459 35.0067 25.3 35.7617C24.9584 36.0974 24.6873 36.498 24.5025 36.9398C24.3177 37.3817 24.223 37.8561 24.2239 38.335C24.2325 38.7765 24.3209 39.2127 24.4848 39.6226C24.1358 39.7172 23.7716 39.742 23.413 39.6956C23.0544 39.6492 22.7085 39.5326 22.395 39.3524ZM29.2784 44.2075L25.1789 47.5812L26.0491 42.345L26.4339 41.6798C26.909 41.9019 27.4263 42.0194 27.9507 42.0245H30.538L29.2784 44.2075Z" fill="#8ED74F"/>
<path d="M41.9262 7.55194C42.1733 7.55194 42.4103 7.45378 42.585 7.27905C42.7598 7.10433 42.8579 6.86735 42.8579 6.62025V1.03008C42.8579 0.782982 42.7598 0.546002 42.585 0.371275C42.4103 0.196549 42.1733 0.0983887 41.9262 0.0983887H12.1744C11.9278 0.0984411 11.6913 0.196274 11.5167 0.370443L0.273918 11.575C0.187006 11.6616 0.118067 11.7646 0.0710596 11.878C0.0240524 11.9913 -9.63972e-05 12.1128 2.89186e-07 12.2356V55.0683C2.89186e-07 55.3154 0.0981606 55.5524 0.272887 55.7271C0.447614 55.9019 0.684594 56 0.931694 56H41.9262C42.1733 56 42.4103 55.9019 42.585 55.7271C42.7598 55.5524 42.8579 55.3154 42.8579 55.0683V45.7514C42.8579 45.5043 42.7598 45.2673 42.585 45.0926C42.4103 44.9179 42.1733 44.8197 41.9262 44.8197C41.6791 44.8197 41.4422 44.9179 41.2674 45.0926C41.0927 45.2673 40.9945 45.5043 40.9945 45.7514V54.1366H1.86339V14.0738H11.1803C11.6745 14.0738 12.1485 13.8775 12.4979 13.528C12.8474 13.1786 13.0437 12.7046 13.0437 12.2104V1.96178H40.9945V6.62025C40.9945 6.86735 41.0927 7.10433 41.2674 7.27905C41.4422 7.45378 41.6791 7.55194 41.9262 7.55194ZM2.27613 12.2104L11.1803 3.33696V12.2104H2.27613Z" fill="#8ED74F"/>
<path d="M36.3361 7.55186H17.7022C17.4551 7.55186 17.2181 7.4537 17.0434 7.27898C16.8687 7.10425 16.7705 6.86727 16.7705 6.62017C16.7705 6.37307 16.8687 6.13609 17.0434 5.96136C17.2181 5.78664 17.4551 5.68848 17.7022 5.68848H36.3361C36.5832 5.68848 36.8202 5.78664 36.9949 5.96136C37.1696 6.13609 37.2678 6.37307 37.2678 6.62017C37.2678 6.86727 37.1696 7.10425 36.9949 7.27898C36.8202 7.4537 36.5832 7.55186 36.3361 7.55186Z" fill="#8ED74F"/>
<path d="M36.3361 13.1421H17.7022C17.4551 13.1421 17.2181 13.0439 17.0434 12.8692C16.8687 12.6945 16.7705 12.4575 16.7705 12.2104C16.7705 11.9633 16.8687 11.7263 17.0434 11.5516C17.2181 11.3768 17.4551 11.2787 17.7022 11.2787H36.3361C36.5832 11.2787 36.8202 11.3768 36.9949 11.5516C37.1696 11.7263 37.2678 11.9633 37.2678 12.2104C37.2678 12.4575 37.1696 12.6945 36.9949 12.8692C36.8202 13.0439 36.5832 13.1421 36.3361 13.1421Z" fill="#8ED74F"/>
<path d="M34.4727 18.7323H8.38531C8.13821 18.7323 7.90123 18.6341 7.7265 18.4594C7.55177 18.2847 7.45361 18.0477 7.45361 17.8006C7.45361 17.5535 7.55177 17.3165 7.7265 17.1418C7.90123 16.9671 8.13821 16.8689 8.38531 16.8689H34.4727C34.7198 16.8689 34.9568 16.9671 35.1315 17.1418C35.3063 17.3165 35.4044 17.5535 35.4044 17.8006C35.4044 18.0477 35.3063 18.2847 35.1315 18.4594C34.9568 18.6341 34.7198 18.7323 34.4727 18.7323Z" fill="#8ED74F"/>
<path d="M25.1558 24.3224H8.38531C8.13821 24.3224 7.90123 24.2242 7.7265 24.0495C7.55177 23.8748 7.45361 23.6378 7.45361 23.3907C7.45361 23.1436 7.55177 22.9066 7.7265 22.7319C7.90123 22.5571 8.13821 22.459 8.38531 22.459H25.1558C25.4029 22.459 25.6399 22.5571 25.8146 22.7319C25.9893 22.9066 26.0875 23.1436 26.0875 23.3907C26.0875 23.6378 25.9893 23.8748 25.8146 24.0495C25.6399 24.2242 25.4029 24.3224 25.1558 24.3224Z" fill="#8ED74F"/>
<path d="M21.429 29.9126H8.38531C8.13821 29.9126 7.90123 29.8144 7.7265 29.6397C7.55177 29.465 7.45361 29.228 7.45361 28.9809C7.45361 28.7338 7.55177 28.4968 7.7265 28.3221C7.90123 28.1474 8.13821 28.0492 8.38531 28.0492H21.429C21.6761 28.0492 21.9131 28.1474 22.0878 28.3221C22.2626 28.4968 22.3607 28.7338 22.3607 28.9809C22.3607 29.228 22.2626 29.465 22.0878 29.6397C21.9131 29.8144 21.6761 29.9126 21.429 29.9126Z" fill="#8ED74F"/>
<path d="M19.5656 35.5028H8.38531C8.13821 35.5028 7.90123 35.4046 7.7265 35.2299C7.55177 35.0552 7.45361 34.8182 7.45361 34.5711C7.45361 34.324 7.55177 34.087 7.7265 33.9123C7.90123 33.7376 8.13821 33.6394 8.38531 33.6394H19.5656C19.8127 33.6394 20.0497 33.7376 20.2244 33.9123C20.3992 34.087 20.4973 34.324 20.4973 34.5711C20.4973 34.8182 20.3992 35.0552 20.2244 35.2299C20.0497 35.4046 19.8127 35.5028 19.5656 35.5028Z" fill="#8ED74F"/>
<path d="M19.5656 51.3415H8.38531C8.13821 51.3415 7.90123 51.2434 7.7265 51.0687C7.55177 50.8939 7.45361 50.6569 7.45361 50.4098C7.45361 50.1627 7.55177 49.9258 7.7265 49.751C7.90123 49.5763 8.13821 49.4781 8.38531 49.4781H19.5656C19.8127 49.4781 20.0497 49.5763 20.2244 49.751C20.3992 49.9258 20.4973 50.1627 20.4973 50.4098C20.4973 50.6569 20.3992 50.8939 20.2244 51.0687C20.0497 51.2434 19.8127 51.3415 19.5656 51.3415Z" fill="#8ED74F"/>
<path d="M17.7022 41.0929H8.38531C8.13821 41.0929 7.90123 40.9947 7.7265 40.82C7.55177 40.6453 7.45361 40.4083 7.45361 40.1612C7.45361 39.9141 7.55177 39.6771 7.7265 39.5024C7.90123 39.3277 8.13821 39.2295 8.38531 39.2295H17.7022C17.9493 39.2295 18.1863 39.3277 18.3611 39.5024C18.5358 39.6771 18.6339 39.9141 18.6339 40.1612C18.6339 40.4083 18.5358 40.6453 18.3611 40.82C18.1863 40.9947 17.9493 41.0929 17.7022 41.0929Z" fill="#8ED74F"/>
</svg>
