<svg width="30" height="33" viewBox="0 0 30 33" fill="none" xmlns="http://www.w3.org/2000/svg">
<path d="M22.7069 10.9785C22.351 10.9785 22.0624 10.6899 22.0624 10.334V5.92676C22.0624 5.57085 22.351 5.28223 22.7069 5.28223C23.0628 5.28223 23.3514 5.57085 23.3514 5.92676V10.334C23.3514 10.6899 23.0629 10.9785 22.7069 10.9785Z" fill="#8ED74F"/>
<path d="M22.7042 4.49744C23.0602 4.49744 23.3488 4.20887 23.3488 3.85291C23.3488 3.49694 23.0602 3.20837 22.7042 3.20837C22.3483 3.20837 22.0597 3.49694 22.0597 3.85291C22.0597 4.20887 22.3483 4.49744 22.7042 4.49744Z" fill="#8ED74F"/>
<path d="M29.4742 6.77125C29.4742 3.03755 26.4372 0 22.7042 0C21.1591 0 19.7332 0.520395 18.5925 1.39515H2.34564C1.05226 1.39515 0 2.44735 0 3.7408V27.1871C0 28.4805 1.05226 29.5328 2.34564 29.5328H4.3908V30.6543C4.3908 31.9477 5.44307 33 6.73645 33H23.5884C24.8818 33 25.9341 31.9477 25.9341 30.6543V21.7145C25.9341 21.3586 25.6454 21.07 25.2895 21.07C24.9336 21.07 24.645 21.3586 24.645 21.7145V30.6543C24.645 31.2369 24.171 31.7109 23.5884 31.7109H6.73645C6.15386 31.7109 5.67987 31.2369 5.67987 30.6543V29.5328H19.1977C20.4911 29.5328 21.5434 28.4805 21.5434 27.1871V13.4429C21.9207 13.5083 22.3085 13.5425 22.7043 13.5425C23.3785 13.5425 24.0301 13.4434 24.6451 13.259V15.8872C24.6451 16.2432 24.9337 16.5318 25.2896 16.5318C25.6455 16.5318 25.9341 16.2432 25.9341 15.8872V12.721C28.0412 11.572 29.4742 9.33591 29.4742 6.77125ZM20.2543 27.1872C20.2543 27.7698 19.7803 28.2438 19.1977 28.2438H2.34564C1.76305 28.2438 1.28906 27.7698 1.28906 27.1872V3.7408C1.28906 3.1582 1.76305 2.68421 2.34564 2.68421H17.3098C16.5008 3.74982 15.9997 5.06144 15.9403 6.48527H4.9645C4.60859 6.48527 4.31997 6.77389 4.31997 7.12981V9.85192C4.31997 10.2078 4.60859 10.4964 4.9645 10.4964H16.5788C16.7253 10.4964 16.8604 10.4475 16.9687 10.3652C17.7387 11.59 18.8898 12.5521 20.2543 13.0837V27.1872ZM15.9343 7.77434V9.20739H5.60903V7.77434H15.9343ZM22.7042 12.2534C19.6821 12.2534 17.2234 9.7941 17.2234 6.77119C17.2234 3.74834 19.6821 1.289 22.7042 1.289C25.7264 1.289 28.1851 3.74827 28.1851 6.77119C28.1851 9.7941 25.7264 12.2534 22.7042 12.2534Z" fill="#8ED74F"/>
<path d="M25.2895 19.434C25.0239 19.434 24.7805 19.264 24.6869 19.0162C24.5908 18.7618 24.6695 18.4628 24.8809 18.2907C25.0926 18.1185 25.3974 18.0978 25.6296 18.2419C25.8614 18.3858 25.98 18.6695 25.9173 18.9357C25.8495 19.2235 25.5856 19.434 25.2895 19.434Z" fill="#8ED74F"/>
<path d="M16.5787 14.0271H4.96436C4.60845 14.0271 4.31982 13.7385 4.31982 13.3826C4.31982 13.0267 4.60845 12.738 4.96436 12.738H16.5787C16.9346 12.738 17.2232 13.0267 17.2232 13.3826C17.2232 13.7385 16.9347 14.0271 16.5787 14.0271Z" fill="#8ED74F"/>
<path d="M16.5789 17.0841H4.9646C4.60869 17.0841 4.32007 16.7955 4.32007 16.4396C4.32007 16.0836 4.60869 15.795 4.9646 15.795H16.5789C16.9348 15.795 17.2235 16.0836 17.2235 16.4396C17.2235 16.7955 16.9349 17.0841 16.5789 17.0841Z" fill="#8ED74F"/>
<path d="M16.5789 20.1411H4.9646C4.60869 20.1411 4.32007 19.8525 4.32007 19.4966C4.32007 19.1407 4.60869 18.8521 4.9646 18.8521H16.5789C16.9348 18.8521 17.2235 19.1407 17.2235 19.4966C17.2235 19.8526 16.9349 20.1411 16.5789 20.1411Z" fill="#8ED74F"/>
<path d="M16.5789 23.198H4.9646C4.60869 23.198 4.32007 22.9094 4.32007 22.5535C4.32007 22.1975 4.60869 21.9089 4.9646 21.9089H16.5789C16.9348 21.9089 17.2235 22.1975 17.2235 22.5535C17.2235 22.9094 16.9349 23.198 16.5789 23.198Z" fill="#8ED74F"/>
</svg>
