<svg width="67" height="29" viewBox="0 0 67 29" fill="none" xmlns="http://www.w3.org/2000/svg">
<path d="M16.4157 1C17.3224 1 18.0357 1.21667 18.5557 1.65C19.0757 2.08333 19.3357 2.68 19.3357 3.44C19.3357 4.2 19.0757 4.79667 18.5557 5.23C18.0357 5.66333 17.3224 5.88 16.4157 5.88H14.6857V8H13.6857V1H16.4157ZM16.3857 5.01C17.0191 5.01 17.5024 4.87667 17.8357 4.61C18.1691 4.33667 18.3357 3.94667 18.3357 3.44C18.3357 2.93333 18.1691 2.54667 17.8357 2.28C17.5024 2.00667 17.0191 1.87 16.3857 1.87H14.6857V5.01H16.3857ZM24.9133 6.25H21.1933L20.4233 8H19.3933L22.5633 1H23.5533L26.7333 8H25.6833L24.9133 6.25ZM24.5633 5.45L23.0533 2.02L21.5433 5.45H24.5633ZM28.824 8.08C28.404 8.08 28.014 7.99333 27.654 7.82C27.294 7.64 27.004 7.39 26.784 7.07L27.364 6.39C27.7507 6.94333 28.2374 7.22 28.824 7.22C29.2174 7.22 29.514 7.1 29.714 6.86C29.9207 6.62 30.024 6.26667 30.024 5.8V1.87H27.494V1H31.014V5.75C31.014 6.52333 30.8274 7.10667 30.454 7.5C30.0874 7.88667 29.544 8.08 28.824 8.08ZM38.131 7.13V8H33.051V1H37.991V1.87H34.051V4.02H37.561V4.87H34.051V7.13H38.131ZM44.4302 8L42.9202 5.85C42.7335 5.86333 42.5869 5.87 42.4802 5.87H40.7502V8H39.7502V1H42.4802C43.3869 1 44.1002 1.21667 44.6202 1.65C45.1402 2.08333 45.4002 2.68 45.4002 3.44C45.4002 3.98 45.2669 4.44 45.0002 4.82C44.7335 5.2 44.3535 5.47667 43.8602 5.65L45.5202 8H44.4302ZM42.4502 5.02C43.0835 5.02 43.5669 4.88333 43.9002 4.61C44.2335 4.33667 44.4002 3.94667 44.4002 3.44C44.4002 2.93333 44.2335 2.54667 43.9002 2.28C43.5669 2.00667 43.0835 1.87 42.4502 1.87H40.7502V5.02H42.4502ZM50.1758 8.08C49.4692 8.08 48.8325 7.92667 48.2658 7.62C47.6992 7.30667 47.2525 6.87667 46.9258 6.33C46.6058 5.78333 46.4458 5.17333 46.4458 4.5C46.4458 3.82667 46.6058 3.21667 46.9258 2.67C47.2525 2.12333 47.6992 1.69667 48.2658 1.39C48.8325 1.07667 49.4692 0.92 50.1758 0.92C50.8758 0.92 51.5092 1.07667 52.0758 1.39C52.6425 1.69667 53.0858 2.12333 53.4058 2.67C53.7258 3.21 53.8858 3.82 53.8858 4.5C53.8858 5.18 53.7258 5.79333 53.4058 6.34C53.0858 6.88 52.6425 7.30667 52.0758 7.62C51.5092 7.92667 50.8758 8.08 50.1758 8.08ZM50.1758 7.19C50.6892 7.19 51.1492 7.07333 51.5558 6.84C51.9692 6.60667 52.2925 6.28667 52.5258 5.88C52.7658 5.46667 52.8858 5.00667 52.8858 4.5C52.8858 3.99333 52.7658 3.53667 52.5258 3.13C52.2925 2.71667 51.9692 2.39333 51.5558 2.16C51.1492 1.92667 50.6892 1.81 50.1758 1.81C49.6625 1.81 49.1958 1.92667 48.7758 2.16C48.3625 2.39333 48.0358 2.71667 47.7958 3.13C47.5625 3.53667 47.4458 3.99333 47.4458 4.5C47.4458 5.00667 47.5625 5.46667 47.7958 5.88C48.0358 6.28667 48.3625 6.60667 48.7758 6.84C49.1958 7.07333 49.6625 7.19 50.1758 7.19ZM3.33133 28.07C2.79133 28.07 2.30466 27.9533 1.87133 27.72C1.43799 27.4867 1.09799 27.1633 0.851328 26.75C0.611328 26.33 0.491328 25.8567 0.491328 25.33C0.491328 24.8033 0.611328 24.3333 0.851328 23.92C1.09799 23.5067 1.43799 23.1833 1.87133 22.95C2.30466 22.7167 2.79133 22.6 3.33133 22.6C3.87799 22.6 4.36799 22.7167 4.80133 22.95C5.23466 23.1833 5.57133 23.5067 5.81133 23.92C6.058 24.3333 6.18133 24.8033 6.18133 25.33C6.18133 25.8567 6.058 26.33 5.81133 26.75C5.57133 27.1633 5.23466 27.4867 4.80133 27.72C4.36799 27.9533 3.87799 28.07 3.33133 28.07ZM3.33133 27C3.79133 27 4.17133 26.8467 4.47133 26.54C4.77133 26.2333 4.92133 25.83 4.92133 25.33C4.92133 24.83 4.77133 24.4267 4.47133 24.12C4.17133 23.8133 3.79133 23.66 3.33133 23.66C2.87133 23.66 2.49133 23.8133 2.19133 24.12C1.89799 24.4267 1.75133 24.83 1.75133 25.33C1.75133 25.83 1.89799 26.2333 2.19133 26.54C2.49133 26.8467 2.87133 27 3.33133 27ZM11.4509 23.72H9.58086V28H8.33086V23.72H6.45086V22.66H11.4509V23.72ZM20.9613 26.41H19.7213V28H18.4613V26.41H14.6213V25.51L18.0713 21H19.4613L16.2113 25.31H18.5013V23.9H19.7213V25.31H20.9613V26.41ZM23.8195 20.9C24.7795 20.9 25.5229 21.2 26.0495 21.8C26.5829 22.4 26.8495 23.26 26.8495 24.38C26.8495 25.1667 26.7062 25.84 26.4195 26.4C26.1329 26.9533 25.7295 27.3767 25.2095 27.67C24.6962 27.9567 24.0995 28.1 23.4195 28.1C23.0595 28.1 22.7195 28.0633 22.3995 27.99C22.0862 27.91 21.8129 27.7967 21.5795 27.65L22.0595 26.67C22.4062 26.8967 22.8495 27.01 23.3895 27.01C24.0629 27.01 24.5895 26.8033 24.9695 26.39C25.3495 25.9767 25.5395 25.38 25.5395 24.6V24.59C25.3329 24.83 25.0695 25.0133 24.7495 25.14C24.4295 25.26 24.0695 25.32 23.6695 25.32C23.2095 25.32 22.7962 25.2333 22.4295 25.06C22.0629 24.88 21.7762 24.6267 21.5695 24.3C21.3629 23.9733 21.2595 23.5967 21.2595 23.17C21.2595 22.7167 21.3729 22.32 21.5995 21.98C21.8262 21.6333 22.1329 21.3667 22.5195 21.18C22.9062 20.9933 23.3395 20.9 23.8195 20.9ZM23.9195 24.3C24.3395 24.3 24.6795 24.1867 24.9395 23.96C25.2062 23.7333 25.3395 23.4467 25.3395 23.1C25.3395 22.76 25.2095 22.48 24.9495 22.26C24.6962 22.0333 24.3429 21.92 23.8895 21.92C23.4829 21.92 23.1529 22.03 22.8995 22.25C22.6462 22.4633 22.5195 22.75 22.5195 23.11C22.5195 23.4767 22.6462 23.7667 22.8995 23.98C23.1529 24.1933 23.4929 24.3 23.9195 24.3ZM30.0891 20.9C31.0491 20.9 31.7924 21.2 32.3191 21.8C32.8524 22.4 33.1191 23.26 33.1191 24.38C33.1191 25.1667 32.9757 25.84 32.6891 26.4C32.4024 26.9533 31.9991 27.3767 31.4791 27.67C30.9657 27.9567 30.3691 28.1 29.6891 28.1C29.3291 28.1 28.9891 28.0633 28.6691 27.99C28.3557 27.91 28.0824 27.7967 27.8491 27.65L28.3291 26.67C28.6757 26.8967 29.1191 27.01 29.6591 27.01C30.3324 27.01 30.8591 26.8033 31.2391 26.39C31.6191 25.9767 31.8091 25.38 31.8091 24.6V24.59C31.6024 24.83 31.3391 25.0133 31.0191 25.14C30.6991 25.26 30.3391 25.32 29.9391 25.32C29.4791 25.32 29.0657 25.2333 28.6991 25.06C28.3324 24.88 28.0457 24.6267 27.8391 24.3C27.6324 23.9733 27.5291 23.5967 27.5291 23.17C27.5291 22.7167 27.6424 22.32 27.8691 21.98C28.0957 21.6333 28.4024 21.3667 28.7891 21.18C29.1757 20.9933 29.6091 20.9 30.0891 20.9ZM30.1891 24.3C30.6091 24.3 30.9491 24.1867 31.2091 23.96C31.4757 23.7333 31.6091 23.4467 31.6091 23.1C31.6091 22.76 31.4791 22.48 31.2191 22.26C30.9657 22.0333 30.6124 21.92 30.1591 21.92C29.7524 21.92 29.4224 22.03 29.1691 22.25C28.9157 22.4633 28.7891 22.75 28.7891 23.11C28.7891 23.4767 28.9157 23.7667 29.1691 23.98C29.4224 24.1933 29.7624 24.3 30.1891 24.3ZM39.6823 28.1C39.1223 28.1 38.6223 27.96 38.1823 27.68C37.7423 27.3933 37.3956 26.98 37.1423 26.44C36.8889 25.8933 36.7623 25.2467 36.7623 24.5C36.7623 23.7533 36.8889 23.11 37.1423 22.57C37.3956 22.0233 37.7423 21.61 38.1823 21.33C38.6223 21.0433 39.1223 20.9 39.6823 20.9C40.2423 20.9 40.7423 21.0433 41.1823 21.33C41.6289 21.61 41.9789 22.0233 42.2323 22.57C42.4856 23.11 42.6123 23.7533 42.6123 24.5C42.6123 25.2467 42.4856 25.8933 42.2323 26.44C41.9789 26.98 41.6289 27.3933 41.1823 27.68C40.7423 27.96 40.2423 28.1 39.6823 28.1ZM39.6823 26.97C40.1823 26.97 40.5756 26.7633 40.8623 26.35C41.1556 25.9367 41.3023 25.32 41.3023 24.5C41.3023 23.68 41.1556 23.0633 40.8623 22.65C40.5756 22.2367 40.1823 22.03 39.6823 22.03C39.1889 22.03 38.7956 22.2367 38.5023 22.65C38.2156 23.0633 38.0723 23.68 38.0723 24.5C38.0723 25.32 38.2156 25.9367 38.5023 26.35C38.7956 26.7633 39.1889 26.97 39.6823 26.97ZM46.4108 28.1C45.8508 28.1 45.3508 27.96 44.9108 27.68C44.4708 27.3933 44.1241 26.98 43.8708 26.44C43.6174 25.8933 43.4908 25.2467 43.4908 24.5C43.4908 23.7533 43.6174 23.11 43.8708 22.57C44.1241 22.0233 44.4708 21.61 44.9108 21.33C45.3508 21.0433 45.8508 20.9 46.4108 20.9C46.9708 20.9 47.4708 21.0433 47.9108 21.33C48.3574 21.61 48.7074 22.0233 48.9608 22.57C49.2141 23.11 49.3408 23.7533 49.3408 24.5C49.3408 25.2467 49.2141 25.8933 48.9608 26.44C48.7074 26.98 48.3574 27.3933 47.9108 27.68C47.4708 27.96 46.9708 28.1 46.4108 28.1ZM46.4108 26.97C46.9108 26.97 47.3041 26.7633 47.5908 26.35C47.8841 25.9367 48.0308 25.32 48.0308 24.5C48.0308 23.68 47.8841 23.0633 47.5908 22.65C47.3041 22.2367 46.9108 22.03 46.4108 22.03C45.9174 22.03 45.5241 22.2367 45.2308 22.65C44.9441 23.0633 44.8008 23.68 44.8008 24.5C44.8008 25.32 44.9441 25.9367 45.2308 26.35C45.5241 26.7633 45.9174 26.97 46.4108 26.97ZM53.1393 28.1C52.5793 28.1 52.0793 27.96 51.6393 27.68C51.1993 27.3933 50.8526 26.98 50.5993 26.44C50.346 25.8933 50.2193 25.2467 50.2193 24.5C50.2193 23.7533 50.346 23.11 50.5993 22.57C50.8526 22.0233 51.1993 21.61 51.6393 21.33C52.0793 21.0433 52.5793 20.9 53.1393 20.9C53.6993 20.9 54.1993 21.0433 54.6393 21.33C55.086 21.61 55.436 22.0233 55.6893 22.57C55.9426 23.11 56.0693 23.7533 56.0693 24.5C56.0693 25.2467 55.9426 25.8933 55.6893 26.44C55.436 26.98 55.086 27.3933 54.6393 27.68C54.1993 27.96 53.6993 28.1 53.1393 28.1ZM53.1393 26.97C53.6393 26.97 54.0326 26.7633 54.3193 26.35C54.6126 25.9367 54.7593 25.32 54.7593 24.5C54.7593 23.68 54.6126 23.0633 54.3193 22.65C54.0326 22.2367 53.6393 22.03 53.1393 22.03C52.646 22.03 52.2526 22.2367 51.9593 22.65C51.6726 23.0633 51.5293 23.68 51.5293 24.5C51.5293 25.32 51.6726 25.9367 51.9593 26.35C52.2526 26.7633 52.646 26.97 53.1393 26.97ZM61.8715 25.69V26.26H64.0715V26.96H61.8715V28H60.5715V26.96H59.5715V26.26H60.5715V21H63.4515C64.3848 21 65.1115 21.2 65.6315 21.6C66.1582 22 66.4215 22.5833 66.4215 23.35C66.4215 24.11 66.1582 24.69 65.6315 25.09C65.1115 25.49 64.3848 25.69 63.4515 25.69H61.8715ZM65.1115 23.36C65.1115 22.9533 64.9682 22.6433 64.6815 22.43C64.3948 22.21 63.9815 22.1 63.4415 22.1H61.8715V24.64H63.4415C63.9748 24.64 64.3848 24.53 64.6715 24.31C64.9648 24.0833 65.1115 23.7667 65.1115 23.36Z" fill="white"/>
</svg>
