<svg width="21" height="21" viewBox="0 0 21 21" fill="none" xmlns="http://www.w3.org/2000/svg">
<g clip-path="url(#clip0_113_1586)">
<path d="M19.4273 3.62057L1.57274 3.62057C0.704115 3.62057 -2.38575e-09 4.32469 -5.32892e-09 5.19332L-1.55394e-08 8.20678L21 8.20678L21 5.19332C21 4.32469 20.2959 3.62057 19.4273 3.62057Z" fill="#F5F5F5"/>
<path d="M-1.02105e-08 15.8064C-1.31535e-08 16.675 0.704115 17.3792 1.57274 17.3792L19.4273 17.3792C20.2958 17.3792 21 16.6751 21 15.8064L21 12.793L0 12.793L-1.02105e-08 15.8064Z" fill="#FF4B55"/>
<path d="M21 8.2067L0 8.2067L-1.55386e-08 12.7927L21 12.7927L21 8.2067Z" fill="#41479B"/>
</g>
<defs>
<clipPath id="clip0_113_1586">
<rect width="21" height="21" fill="white"/>
</clipPath>
</defs>
</svg>
