<svg width="24" height="33" viewBox="0 0 24 33" fill="none" xmlns="http://www.w3.org/2000/svg">
<path d="M0.109681 14.9765C-0.145285 15.6565 0.0538045 16.4237 0.607782 16.8936C1.65735 17.9439 3.81587 21.7355 4.88431 24.4072C5.61347 26.2294 7.21449 28.018 8.42916 29.1979C8.95193 29.7124 9.24541 30.4156 9.2439 31.1493V31.3504C9.2439 32.2615 9.98237 33 10.8935 33H19.6907C20.6018 33 21.3403 32.2615 21.3403 31.3504V29.6613C21.3353 29.5216 21.3884 29.3859 21.487 29.287C23.5164 27.4313 23.5396 24.3334 23.5396 24.2026V15.4982C23.56 14.3208 22.6723 13.3254 21.5004 13.2116C21.0599 13.1827 20.621 13.2871 20.2406 13.5111V12.6561C20.2452 11.8638 19.8208 11.1311 19.1312 10.7407C18.4418 10.3503 17.5951 10.3634 16.918 10.7752C16.8476 10.0335 16.4021 9.37956 15.7378 9.04254C15.0734 8.70552 14.2828 8.73195 13.6425 9.11302V8.20239C15.0072 7.42793 15.8478 5.97767 15.842 4.40861C15.842 1.97926 13.8725 0.0100098 11.4432 0.0100098C9.01385 0.0100098 7.0446 1.97926 7.0446 4.40861C7.03881 5.97767 7.87947 7.42793 9.2439 8.20239V17.0547C9.2595 17.7038 9.17116 18.3509 8.98214 18.9721C8.92324 19.1556 8.77298 19.2955 8.58572 19.3416C8.40953 19.3861 8.22278 19.3371 8.09089 19.2117C7.6615 18.8022 7.27993 18.3451 6.95399 17.8493C5.99982 16.4219 3.59891 13.7558 2.09605 13.7558C1.25187 13.7381 0.475392 14.2153 0.109681 14.9765ZM8.14425 4.40861C8.14425 2.5866 9.62119 1.10966 11.4432 1.10966C13.2652 1.10966 14.7421 2.5866 14.7421 4.40861C14.7474 5.34944 14.3467 6.24673 13.6425 6.87093V4.40861C13.6425 3.19393 12.6579 2.20931 11.4432 2.20931C10.2285 2.20931 9.2439 3.19393 9.2439 4.40861V6.87093C8.53991 6.24673 8.13896 5.34944 8.14425 4.40861ZM6.03732 18.4597C6.41008 19.025 6.84601 19.546 7.33656 20.0129C7.74103 20.3954 8.31313 20.5447 8.85302 20.4083C9.40322 20.2711 9.84494 19.8618 10.0241 19.324C10.2517 18.5895 10.3597 17.8234 10.3435 17.0547V4.40861C10.3435 3.80127 10.8359 3.30896 11.4432 3.30896C12.0505 3.30896 12.5428 3.80127 12.5428 4.40861V15.9551C12.5428 16.2589 12.789 16.505 13.0928 16.505C13.3963 16.505 13.6425 16.2589 13.6425 15.9551V11.0068C13.6425 10.3994 14.1351 9.90711 14.7421 9.90711C15.3495 9.90711 15.842 10.3994 15.842 11.0068V15.9551C15.842 16.2589 16.0882 16.505 16.3917 16.505C16.6955 16.505 16.9417 16.2589 16.9417 15.9551V12.6561C16.9417 12.0488 17.434 11.5565 18.0413 11.5565C18.6487 11.5565 19.141 12.0488 19.141 12.6561V16.505C19.141 16.8085 19.3872 17.0547 19.6907 17.0547C19.9945 17.0547 20.2406 16.8085 20.2406 16.505V15.4054C20.2399 15.1136 20.3562 14.8338 20.5633 14.6284C20.7901 14.4036 21.1024 14.2871 21.4211 14.3085C22.0151 14.386 22.4545 14.8995 22.4399 15.4982V24.2026C22.4399 24.2295 22.412 26.9518 20.7443 28.4761C20.4183 28.7834 20.2356 29.2133 20.2406 29.6613V31.3504C20.2406 31.6542 19.9945 31.9004 19.6907 31.9004H10.8935C10.5897 31.9004 10.3435 31.6542 10.3435 31.3504V31.1493C10.3443 30.1186 9.93027 29.131 9.19507 28.4089C8.26355 27.5045 6.59759 25.7278 5.90593 23.9982C4.77432 21.1709 2.5355 17.2664 1.38526 16.1161C1.1235 15.8546 1.03591 15.6125 1.12501 15.3971C1.32435 15.0517 1.69736 14.8436 2.09605 14.8554C2.84333 14.8554 4.86946 16.7079 6.03732 18.4597Z" fill="white"/>
</svg>
