<svg width="24" height="23" viewBox="0 0 24 23" fill="none" xmlns="http://www.w3.org/2000/svg">
<path d="M19.1503 14.2476C18.6794 13.7574 18.1115 13.4952 17.5095 13.4952C16.9124 13.4952 16.3396 13.7525 15.8493 14.2428L14.3154 15.7719C14.1892 15.7039 14.063 15.6408 13.9416 15.5777C13.7668 15.4903 13.6018 15.4078 13.461 15.3204C12.0241 14.4078 10.7183 13.2185 9.46593 11.6797C8.85914 10.9127 8.45138 10.2671 8.15526 9.61177C8.55332 9.2477 8.92225 8.86906 9.28146 8.50499C9.41739 8.36907 9.5533 8.22829 9.68923 8.09237C10.7086 7.07297 10.7086 5.7526 9.68923 4.73319L8.364 3.40797C8.21352 3.25748 8.05818 3.10215 7.91255 2.94681C7.62129 2.64584 7.31547 2.33516 6.99994 2.04391C6.52907 1.57789 5.96597 1.33032 5.37374 1.33032C4.78152 1.33032 4.20871 1.57789 3.72328 2.04391C3.71843 2.04876 3.71843 2.04876 3.71357 2.05361L2.06311 3.71864C1.44175 4.33999 1.08739 5.09727 1.00972 5.9759C0.893217 7.39335 1.31069 8.71373 1.63107 9.57779C2.41747 11.6991 3.59221 13.6651 5.34462 15.7719C7.47081 18.3107 10.029 20.3155 12.9513 21.7281C14.0678 22.2572 15.5581 22.8835 17.2231 22.9902C17.3251 22.9951 17.4318 23 17.5289 23C18.6503 23 19.592 22.5971 20.3299 21.7961C20.3347 21.7864 20.3444 21.7815 20.3493 21.7718C20.6017 21.466 20.893 21.1893 21.1988 20.8932C21.4075 20.6942 21.6211 20.4854 21.8299 20.267C22.3104 19.767 22.5629 19.1845 22.5629 18.5874C22.5629 17.9855 22.3056 17.4078 21.8153 16.9224L19.1503 14.2476ZM20.8881 19.3592C20.8833 19.3592 20.8833 19.3641 20.8881 19.3592C20.6988 19.5631 20.5046 19.7476 20.2959 19.9515C19.9804 20.2524 19.66 20.5679 19.359 20.9223C18.8687 21.4466 18.2911 21.6941 17.5338 21.6941C17.461 21.6941 17.3833 21.6941 17.3105 21.6893C15.8688 21.5971 14.529 21.034 13.5241 20.5534C10.7766 19.2233 8.364 17.335 6.35917 14.9418C4.70385 12.9467 3.59707 11.102 2.86407 9.12149C2.41262 7.91277 2.24757 6.97103 2.32038 6.08269C2.36893 5.51474 2.58737 5.04387 2.99028 4.64096L4.6456 2.98564C4.88346 2.76234 5.13588 2.64099 5.38345 2.64099C5.68928 2.64099 5.93684 2.82545 6.09218 2.98079C6.09704 2.98564 6.10189 2.9905 6.10675 2.99535C6.40286 3.27205 6.68441 3.55845 6.98052 3.86427C7.131 4.01961 7.28634 4.17495 7.44168 4.33514L8.76691 5.66037C9.28146 6.17492 9.28146 6.65065 8.76691 7.1652C8.62613 7.30598 8.49021 7.44675 8.34944 7.58267C7.94167 8.00014 7.55333 8.38849 7.131 8.76712C7.1213 8.77683 7.11159 8.78169 7.10673 8.7914C6.68926 9.20887 6.76693 9.61663 6.85431 9.89332C6.85916 9.90789 6.86402 9.92245 6.86887 9.93701C7.21353 10.772 7.69896 11.5584 8.43681 12.4952L8.44167 12.5001C9.78146 14.1506 11.1941 15.4369 12.7523 16.4224C12.9513 16.5486 13.1552 16.6505 13.3494 16.7476C13.5241 16.835 13.6892 16.9175 13.83 17.0049C13.8494 17.0146 13.8688 17.0292 13.8882 17.0389C14.0532 17.1214 14.2086 17.1602 14.3688 17.1602C14.7717 17.1602 15.0241 16.9078 15.1066 16.8253L16.7668 15.1651C16.9319 15.0001 17.194 14.801 17.4998 14.801C17.8008 14.801 18.0483 14.9903 18.1988 15.1554C18.2037 15.1602 18.2037 15.1602 18.2085 15.1651L20.8833 17.8398C21.3833 18.335 21.3833 18.8447 20.8881 19.3592Z" fill="black"/>
<path d="M13.4028 5.47104C14.6747 5.68463 15.83 6.28656 16.7523 7.20888C17.6746 8.1312 18.2717 9.28653 18.4901 10.5584C18.5435 10.8787 18.8202 11.102 19.1358 11.102C19.1746 11.102 19.2086 11.0972 19.2474 11.0923C19.6066 11.0341 19.8445 10.6943 19.7862 10.3351C19.5241 8.79624 18.796 7.39335 17.6843 6.28171C16.5727 5.17007 15.1698 4.44193 13.631 4.17979C13.2718 4.12154 12.9368 4.3594 12.8737 4.71377C12.8106 5.06813 13.0436 5.41279 13.4028 5.47104Z" fill="black"/>
<path d="M23.9463 10.1458C23.5143 7.61184 22.3201 5.30604 20.4852 3.47111C18.6503 1.63618 16.3445 0.442024 13.8105 0.00999089C13.4561 -0.0531151 13.1212 0.1896 13.0581 0.543965C12.9998 0.903184 13.2377 1.23813 13.5969 1.30124C15.859 1.68473 17.9221 2.75753 19.5629 4.39343C21.2036 6.03419 22.2716 8.09727 22.6551 10.3594C22.7085 10.6798 22.9852 10.9031 23.3007 10.9031C23.3395 10.9031 23.3735 10.8982 23.4123 10.8934C23.7667 10.84 24.0094 10.5002 23.9463 10.1458Z" fill="black"/>
</svg>
