<?xml version="1.0" encoding="UTF-8"?>
<!DOCTYPE svg PUBLIC "-//W3C//DTD SVG 1.1//EN" "http://www.w3.org/Graphics/SVG/1.1/DTD/svg11.dtd">
<!-- Creator: CorelDRAW 2018 (64-Bit) -->
<svg xmlns="http://www.w3.org/2000/svg" xml:space="preserve" width="6.0767mm" height="6.0855mm" version="1.1" style="shape-rendering:geometricPrecision; text-rendering:geometricPrecision; image-rendering:optimizeQuality; fill-rule:evenodd; clip-rule:evenodd"
viewBox="0 0 633.78 634.69"
 xmlns:xlink="http://www.w3.org/1999/xlink">
 <defs>
  <style type="text/css">
   <![CDATA[
    .fil0 {fill:#8ED74F}
   ]]>
  </style>
 </defs>
 <g id="Слой_x0020_1">
  <metadata id="CorelCorpID_0Corel-Layer"/>
  <path class="fil0" d="M501.15 393.17c-13,-13.53 -28.67,-20.77 -45.29,-20.77 -16.48,0 -32.28,7.1 -45.81,20.63l-42.33 42.2c-3.48,-1.88 -6.97,-3.62 -10.31,-5.36 -4.82,-2.41 -9.38,-4.69 -13.26,-7.1 -39.65,-25.18 -75.69,-58 -110.25,-100.47 -16.74,-21.16 -27.99,-38.98 -36.17,-57.06 10.99,-10.04 21.17,-20.49 31.08,-30.54 3.75,-3.75 7.5,-7.63 11.25,-11.39 28.13,-28.13 28.13,-64.57 0,-92.7l-36.57 -36.57c-4.15,-4.15 -8.44,-8.44 -12.46,-12.72 -8.03,-8.31 -16.47,-16.89 -25.18,-24.92 -13,-12.86 -28.54,-19.69 -44.88,-19.69 -16.34,0 -32.14,6.83 -45.55,19.69 -0.14,0.14 -0.14,0.14 -0.27,0.26l-45.54 45.95c-17.15,17.15 -26.93,38.04 -29.07,62.29 -3.22,39.11 8.3,75.55 17.15,99.39 21.69,58.54 54.11,112.79 102.47,170.93 58.68,70.06 129.26,125.37 209.91,164.36 30.81,14.6 71.93,31.88 117.88,34.82 2.82,0.14 5.77,0.27 8.45,0.27 30.94,0 56.92,-11.12 77.29,-33.22 0.13,-0.27 0.4,-0.41 0.53,-0.68 6.97,-8.44 15,-16.07 23.44,-24.24 5.77,-5.5 11.66,-11.25 17.42,-17.28 13.27,-13.8 20.23,-29.87 20.23,-46.35 0,-16.6 -7.1,-32.55 -20.63,-45.94l-73.54 -73.81zm47.94 141.05c-0.13,0 -0.13,0.14 0,0 -5.21,5.63 -10.58,10.72 -16.33,16.34 -8.71,8.3 -17.55,17.01 -25.85,26.79 -13.54,14.47 -29.47,21.3 -50.36,21.3 -2.01,0 -4.16,0 -6.16,-0.14 -39.79,-2.54 -76.76,-18.08 -104.48,-31.34 -75.82,-36.7 -142.4,-88.82 -197.72,-154.86 -45.67,-55.05 -76.22,-105.95 -96.44,-160.61 -12.46,-33.35 -17.01,-59.34 -15.01,-83.85 1.35,-15.68 7.37,-28.67 18.49,-39.79l45.67 -45.68c6.57,-6.15 13.54,-9.5 20.37,-9.5 8.44,0 15.27,5.09 19.56,9.38 0.14,0.13 0.27,0.26 0.4,0.4 8.18,7.63 15.95,15.54 24.11,23.98 4.15,4.29 8.44,8.57 12.72,13l36.58 36.57c14.19,14.21 14.19,27.33 0,41.53 -3.89,3.88 -7.63,7.77 -11.52,11.51 -11.25,11.52 -21.96,22.24 -33.63,32.69 -0.26,0.27 -0.53,0.41 -0.67,0.67 -11.51,11.52 -9.38,22.78 -6.97,30.41 0.14,0.41 0.27,0.8 0.41,1.21 9.51,23.04 22.9,44.74 43.26,70.59l0.14 0.14c36.97,45.55 75.96,81.04 118.95,108.24 5.5,3.48 11.12,6.29 16.48,8.97 4.83,2.42 9.38,4.69 13.27,7.1 0.53,0.27 1.07,0.67 1.61,0.94 4.55,2.27 8.84,3.35 13.26,3.35 11.12,0 18.08,-6.97 20.37,-9.24l45.81 -45.82c4.56,-4.55 11.79,-10.04 20.23,-10.04 8.3,0 15.13,5.23 19.28,9.78 0.14,0.13 0.14,0.13 0.27,0.26l73.81 73.81c13.8,13.66 13.8,27.73 0.13,41.93z"/>
  <path class="fil0" d="M342.55 150.98c35.1,5.9 66.98,22.51 92.43,47.96 25.45,25.46 41.93,57.34 47.96,92.44 1.47,8.83 9.11,15 17.81,15 1.07,0 2.01,-0.14 3.08,-0.27 9.92,-1.61 16.48,-10.98 14.87,-20.89 -7.23,-42.47 -27.33,-81.18 -58,-111.86 -30.67,-30.67 -69.39,-50.76 -111.86,-58 -9.91,-1.61 -19.15,4.95 -20.89,14.74 -1.74,9.77 4.68,19.28 14.6,20.89z"/>
  <path class="fil0" d="M633.49 279.98c-11.92,-69.92 -44.88,-133.55 -95.51,-184.19 -50.63,-50.64 -114.26,-83.59 -184.19,-95.51 -9.77,-1.74 -19.01,4.96 -20.75,14.74 -1.62,9.92 4.95,19.16 14.86,20.9 62.42,10.58 119.36,40.19 164.63,85.32 45.27,45.27 74.75,102.21 85.33,164.63 1.47,8.84 9.11,15.01 17.81,15.01 1.06,0 2,-0.14 3.08,-0.27 9.78,-1.47 16.48,-10.85 14.74,-20.63z"/>
 </g>
</svg>
