<svg width="150" height="150" viewBox="0 0 150 150" fill="none" xmlns="http://www.w3.org/2000/svg">
<circle cx="75" cy="75" r="75" fill="#8ED74F"/>
<path d="M105.917 53.5101C97.6404 48.0224 86.6605 45 75 45C66.9052 45 58.9962 46.4839 52.1279 49.2911C51.4696 49.5602 51.1558 50.3079 51.4268 50.9615C51.6979 51.6151 52.451 51.9268 53.1097 51.6576C59.6694 48.9762 67.239 47.559 75 47.559C97.8401 47.559 116.422 59.6893 116.422 74.5994C116.422 89.5095 97.8401 101.64 75 101.64C52.1599 101.64 33.5781 89.5095 33.5781 74.5994C33.5781 66.6872 38.8995 59.1859 48.1782 54.019C48.7992 53.6732 49.0201 52.8934 48.6718 52.2772C48.3235 51.6608 47.5376 51.4418 46.917 51.7872C36.8015 57.4202 31 65.7349 31 74.5994C31 82.6053 35.6461 90.0948 44.0823 95.6887C52.3587 101.176 63.339 104.199 75 104.199C86.6605 104.199 97.6404 101.176 105.917 95.6887C114.354 90.0947 119 82.6051 119 74.5994C119 66.5938 114.354 59.1042 105.917 53.5101Z" fill="black"/>
<path d="M97.2039 56.3396C93.9572 53.9548 87.1349 51.2479 77.7244 50.8031C77.0802 50.7741 76.5122 51.2199 76.3955 51.8496C76.2786 52.4793 76.649 53.0979 77.2621 53.2971C81.1563 54.5628 84.5131 59.021 86.2419 65.2227C86.3996 65.7889 86.9175 66.1614 87.4833 66.1614C87.5909 66.1614 87.7004 66.1479 87.8092 66.1196C91.6001 65.1388 95.0204 63.668 97.1941 62.0838C98.1293 61.4011 98.6662 60.3539 98.6676 59.211C98.6688 58.0695 98.1351 57.0229 97.2039 56.3396ZM95.6673 60.0217C94.8353 60.6282 92.544 62.0872 88.3578 63.313C87.0963 59.4057 85.1909 56.1653 82.8869 53.9058C87.4897 54.6276 92.4782 56.0518 95.6709 58.3971C96.0357 58.6646 96.0898 59.0201 96.0896 59.2081C96.0893 59.5296 95.9351 59.8264 95.6673 60.0217Z" fill="black"/>
<path d="M73.6036 51.8497C73.4867 51.2199 72.9173 50.7742 72.2746 50.8031C62.8891 51.2451 56.0629 53.941 52.8039 56.3164C51.8693 56.9978 51.3318 58.0436 51.3296 59.1854C51.3274 60.3276 51.8607 61.3758 52.7933 62.0611C54.9615 63.6537 58.3863 65.1323 62.1892 66.1177C62.2983 66.146 62.4078 66.1595 62.5156 66.1595C63.0814 66.1595 63.5992 65.787 63.7572 65.2208C65.4857 59.0198 68.8425 54.5623 72.7368 53.2971C73.3499 53.098 73.7203 52.4794 73.6036 51.8497ZM61.6412 63.3109C57.4441 62.0799 55.1564 60.6135 54.3271 60.0045C54.0598 59.8081 53.907 59.5115 53.9077 59.1906C53.9084 58.87 54.0622 58.5742 54.33 58.379C57.5346 56.0433 62.5183 54.6246 67.1124 53.9051C64.8084 56.1641 62.9028 59.4045 61.6412 63.3109Z" fill="black"/>
<path d="M105.579 60.6018C105.259 60.3169 104.818 60.2086 104.401 60.3128C103.985 60.4172 103.648 60.7207 103.503 61.122C102.681 63.4007 99.9744 65.6477 95.881 67.4487C95.2301 67.7352 94.9364 68.491 95.225 69.137C95.5136 69.7831 96.2748 70.0747 96.9259 69.7882C100.812 68.0783 103.59 65.9896 105.084 63.6764C108.368 67.0306 110.093 70.7796 110.093 74.5994C110.093 80.1618 106.472 85.5093 99.8954 89.6568C94.8395 92.8454 88.6167 94.9622 81.9102 95.8262C83.35 94.6451 84.6712 93.0825 85.8258 91.1706C88.5404 86.6752 90.0356 80.7252 90.0356 74.4166C90.0356 73.6411 90.0129 72.8686 89.968 72.1086C90.5856 71.9562 91.1937 71.7941 91.7854 71.6244C92.4693 71.428 92.8634 70.7187 92.6658 70.0397C92.4679 69.3609 91.7533 68.9695 91.0692 69.166C90.1832 69.4202 89.2573 69.6563 88.3175 69.8674C87.6881 70.0088 87.2612 70.5902 87.3181 71.2283C87.4105 72.2636 87.4574 73.3364 87.4574 74.4165C87.4574 80.2683 86.0928 85.7509 83.6145 89.8547C81.2602 93.7537 78.2008 95.9007 74.9999 95.9007C70.48 95.9007 66.2945 91.6039 64.0769 84.687C63.8611 84.0137 63.1361 83.6416 62.4577 83.8557C61.7793 84.07 61.4045 84.7896 61.6202 85.4629C63.0802 90.0168 65.365 93.5906 68.1083 95.8285C61.3938 94.9663 55.164 92.8485 50.1032 89.6568C43.5267 85.5093 39.9048 80.1618 39.9048 74.5994C39.9048 70.7763 41.6314 67.026 44.9182 63.6718C47.2445 67.2406 52.6789 70.2947 60.03 72.1089C59.9851 72.8691 59.9624 73.6416 59.9624 74.4168C59.9624 76.3588 60.1058 78.2908 60.3885 80.1594C60.4944 80.8584 61.1511 81.3395 61.8548 81.2347C62.5588 81.1297 63.0438 80.4781 62.9381 79.7793C62.6743 78.0363 62.5406 76.2322 62.5406 74.417C62.5406 73.3374 62.5875 72.2648 62.6799 71.2288C62.737 70.5907 62.3099 70.0093 61.6805 69.8679C53.6051 68.0539 47.7863 64.7027 46.4946 61.122C46.3499 60.7206 46.0132 60.4172 45.5968 60.3128C45.1805 60.2087 44.7389 60.3166 44.4194 60.6016C39.7793 64.7401 37.3267 69.5804 37.3267 74.5994C37.3267 77.8969 38.3811 81.1105 40.4608 84.1508C42.4217 87.0178 45.2008 89.597 48.7206 91.8168C55.8864 96.3361 65.2194 98.8248 74.9999 98.8248C84.7798 98.8248 94.1121 96.3361 101.278 91.8167C104.798 89.597 107.577 87.0178 109.538 84.1508C111.617 81.1104 112.672 77.8967 112.672 74.5994C112.672 69.5821 110.219 64.7418 105.579 60.6018Z" fill="black"/>
<path d="M82.4817 65.6627C80.8565 60.2517 77.8501 56.6162 75.0007 56.6162C72.1505 56.6162 69.1432 60.2517 67.5176 65.6627C67.4088 66.0249 67.4669 66.4161 67.6761 66.7319C67.8854 67.0475 68.2245 67.2551 68.6027 67.2991C70.6641 67.5393 72.8169 67.6611 75.0005 67.6611C77.1832 67.6611 79.3352 67.5393 81.3967 67.2991C81.7748 67.2551 82.1139 67.0475 82.3233 66.7319C82.5324 66.4161 82.5905 66.0249 82.4817 65.6627ZM75.0007 65.1019C73.4722 65.1019 71.9609 65.0395 70.4897 64.9162C71.919 61.1609 73.9399 59.1752 75.0007 59.1752C76.0608 59.1752 78.0807 61.1609 79.51 64.9162C78.0389 65.0397 76.5283 65.1019 75.0007 65.1019Z" fill="black"/>
<path d="M83.6264 72.0693C83.6022 71.7211 83.4355 71.3979 83.1651 71.1748C82.8949 70.9515 82.5443 70.8479 82.1951 70.887C77.496 71.4174 72.5005 71.4172 67.8029 70.887C67.4545 70.8483 67.1032 70.9515 66.8329 71.1748C66.5625 71.3981 66.3958 71.7211 66.3712 72.0693C66.3167 72.844 66.2891 73.6339 66.2891 74.4173C66.2891 79.081 67.2634 83.5436 69.0329 86.9829C70.7188 90.2599 72.9494 92.2161 74.9997 92.2161C79.1106 92.2161 83.7086 84.6042 83.7086 74.4173C83.7086 73.6339 83.6809 72.8438 83.6264 72.0693ZM78.6692 85.8191C77.2207 88.635 75.6813 89.6571 75 89.6571C73.1269 89.6571 68.8675 83.8995 68.8675 74.4173C68.8675 74.1351 68.8713 73.8521 68.879 73.5692C72.9032 73.9362 77.0936 73.9363 81.1191 73.5692C81.1269 73.8519 81.1306 74.1349 81.1306 74.4173C81.1308 78.684 80.2565 82.7332 78.6692 85.8191Z" fill="black"/>
</svg>
