<svg width="83" height="50" viewBox="0 0 83 50" fill="none" xmlns="http://www.w3.org/2000/svg">
<path d="M28.8741 12L25.8041 19H24.8141L21.7341 12H22.8141L25.3341 17.75L27.8741 12H28.8741ZM35.9933 12L32.9233 19H31.9333L28.8533 12H29.9333L32.4533 17.75L34.9933 12H35.9933ZM42.448 12C43.3546 12 44.068 12.2167 44.588 12.65C45.108 13.0833 45.368 13.68 45.368 14.44C45.368 15.2 45.108 15.7967 44.588 16.23C44.068 16.6633 43.3546 16.88 42.448 16.88H40.718V19H39.718V12H42.448ZM42.418 16.01C43.0513 16.01 43.5346 15.8767 43.868 15.61C44.2013 15.3367 44.368 14.9467 44.368 14.44C44.368 13.9333 44.2013 13.5467 43.868 13.28C43.5346 13.0067 43.0513 12.87 42.418 12.87H40.718V16.01H42.418ZM48.9476 19.06C48.4209 19.06 47.9476 18.9433 47.5276 18.71C47.1076 18.4767 46.7776 18.1567 46.5376 17.75C46.3042 17.3367 46.1876 16.87 46.1876 16.35C46.1876 15.83 46.3042 15.3667 46.5376 14.96C46.7776 14.5467 47.1076 14.2267 47.5276 14C47.9476 13.7667 48.4209 13.65 48.9476 13.65C49.4742 13.65 49.9442 13.7667 50.3576 14C50.7776 14.2267 51.1042 14.5467 51.3376 14.96C51.5776 15.3667 51.6976 15.83 51.6976 16.35C51.6976 16.87 51.5776 17.3367 51.3376 17.75C51.1042 18.1567 50.7776 18.4767 50.3576 18.71C49.9442 18.9433 49.4742 19.06 48.9476 19.06ZM48.9476 18.22C49.2876 18.22 49.5909 18.1433 49.8576 17.99C50.1309 17.83 50.3442 17.61 50.4976 17.33C50.6509 17.0433 50.7276 16.7167 50.7276 16.35C50.7276 15.9833 50.6509 15.66 50.4976 15.38C50.3442 15.0933 50.1309 14.8733 49.8576 14.72C49.5909 14.5667 49.2876 14.49 48.9476 14.49C48.6076 14.49 48.3009 14.5667 48.0276 14.72C47.7609 14.8733 47.5476 15.0933 47.3876 15.38C47.2342 15.66 47.1576 15.9833 47.1576 16.35C47.1576 16.7167 47.2342 17.0433 47.3876 17.33C47.5476 17.61 47.7609 17.83 48.0276 17.99C48.3009 18.1433 48.6076 18.22 48.9476 18.22ZM53.0252 11.58H53.9852V19H53.0252V11.58ZM58.0882 19.06C57.5615 19.06 57.0882 18.9433 56.6682 18.71C56.2482 18.4767 55.9182 18.1567 55.6782 17.75C55.4449 17.3367 55.3282 16.87 55.3282 16.35C55.3282 15.83 55.4449 15.3667 55.6782 14.96C55.9182 14.5467 56.2482 14.2267 56.6682 14C57.0882 13.7667 57.5615 13.65 58.0882 13.65C58.6149 13.65 59.0849 13.7667 59.4982 14C59.9182 14.2267 60.2449 14.5467 60.4782 14.96C60.7182 15.3667 60.8382 15.83 60.8382 16.35C60.8382 16.87 60.7182 17.3367 60.4782 17.75C60.2449 18.1567 59.9182 18.4767 59.4982 18.71C59.0849 18.9433 58.6149 19.06 58.0882 19.06ZM58.0882 18.22C58.4282 18.22 58.7315 18.1433 58.9982 17.99C59.2715 17.83 59.4849 17.61 59.6382 17.33C59.7915 17.0433 59.8682 16.7167 59.8682 16.35C59.8682 15.9833 59.7915 15.66 59.6382 15.38C59.4849 15.0933 59.2715 14.8733 58.9982 14.72C58.7315 14.5667 58.4282 14.49 58.0882 14.49C57.7482 14.49 57.4415 14.5667 57.1682 14.72C56.9015 14.8733 56.6882 15.0933 56.5282 15.38C56.3749 15.66 56.2982 15.9833 56.2982 16.35C56.2982 16.7167 56.3749 17.0433 56.5282 17.33C56.6882 17.61 56.9015 17.83 57.1682 17.99C57.4415 18.1433 57.7482 18.22 58.0882 18.22ZM11.3313 39.07C10.7913 39.07 10.3047 38.9533 9.87133 38.72C9.43799 38.4867 9.09799 38.1633 8.85133 37.75C8.61133 37.33 8.49133 36.8567 8.49133 36.33C8.49133 35.8033 8.61133 35.3333 8.85133 34.92C9.09799 34.5067 9.43799 34.1833 9.87133 33.95C10.3047 33.7167 10.7913 33.6 11.3313 33.6C11.878 33.6 12.368 33.7167 12.8013 33.95C13.2347 34.1833 13.5713 34.5067 13.8113 34.92C14.058 35.3333 14.1813 35.8033 14.1813 36.33C14.1813 36.8567 14.058 37.33 13.8113 37.75C13.5713 38.1633 13.2347 38.4867 12.8013 38.72C12.368 38.9533 11.878 39.07 11.3313 39.07ZM11.3313 38C11.7913 38 12.1713 37.8467 12.4713 37.54C12.7713 37.2333 12.9213 36.83 12.9213 36.33C12.9213 35.83 12.7713 35.4267 12.4713 35.12C12.1713 34.8133 11.7913 34.66 11.3313 34.66C10.8713 34.66 10.4913 34.8133 10.1913 35.12C9.89799 35.4267 9.75133 35.83 9.75133 36.33C9.75133 36.83 9.89799 37.2333 10.1913 37.54C10.4913 37.8467 10.8713 38 11.3313 38ZM19.4509 34.72H17.5809V39H16.3309V34.72H14.4509V33.66H19.4509V34.72ZM28.9613 37.41H27.7213V39H26.4613V37.41H22.6213V36.51L26.0713 32H27.4613L24.2113 36.31H26.5013V34.9H27.7213V36.31H28.9613V37.41ZM31.8195 31.9C32.7795 31.9 33.5229 32.2 34.0495 32.8C34.5829 33.4 34.8495 34.26 34.8495 35.38C34.8495 36.1667 34.7062 36.84 34.4195 37.4C34.1329 37.9533 33.7295 38.3767 33.2095 38.67C32.6962 38.9567 32.0995 39.1 31.4195 39.1C31.0595 39.1 30.7195 39.0633 30.3995 38.99C30.0862 38.91 29.8129 38.7967 29.5795 38.65L30.0595 37.67C30.4062 37.8967 30.8495 38.01 31.3895 38.01C32.0629 38.01 32.5895 37.8033 32.9695 37.39C33.3495 36.9767 33.5395 36.38 33.5395 35.6V35.59C33.3329 35.83 33.0695 36.0133 32.7495 36.14C32.4295 36.26 32.0695 36.32 31.6695 36.32C31.2095 36.32 30.7962 36.2333 30.4295 36.06C30.0629 35.88 29.7762 35.6267 29.5695 35.3C29.3629 34.9733 29.2595 34.5967 29.2595 34.17C29.2595 33.7167 29.3729 33.32 29.5995 32.98C29.8262 32.6333 30.1329 32.3667 30.5195 32.18C30.9062 31.9933 31.3395 31.9 31.8195 31.9ZM31.9195 35.3C32.3395 35.3 32.6795 35.1867 32.9395 34.96C33.2062 34.7333 33.3395 34.4467 33.3395 34.1C33.3395 33.76 33.2095 33.48 32.9495 33.26C32.6962 33.0333 32.3429 32.92 31.8895 32.92C31.4829 32.92 31.1529 33.03 30.8995 33.25C30.6462 33.4633 30.5195 33.75 30.5195 34.11C30.5195 34.4767 30.6462 34.7667 30.8995 34.98C31.1529 35.1933 31.4929 35.3 31.9195 35.3ZM38.0891 31.9C39.0491 31.9 39.7924 32.2 40.3191 32.8C40.8524 33.4 41.1191 34.26 41.1191 35.38C41.1191 36.1667 40.9757 36.84 40.6891 37.4C40.4024 37.9533 39.9991 38.3767 39.4791 38.67C38.9657 38.9567 38.3691 39.1 37.6891 39.1C37.3291 39.1 36.9891 39.0633 36.6691 38.99C36.3557 38.91 36.0824 38.7967 35.8491 38.65L36.3291 37.67C36.6757 37.8967 37.1191 38.01 37.6591 38.01C38.3324 38.01 38.8591 37.8033 39.2391 37.39C39.6191 36.9767 39.8091 36.38 39.8091 35.6V35.59C39.6024 35.83 39.3391 36.0133 39.0191 36.14C38.6991 36.26 38.3391 36.32 37.9391 36.32C37.4791 36.32 37.0657 36.2333 36.6991 36.06C36.3324 35.88 36.0457 35.6267 35.8391 35.3C35.6324 34.9733 35.5291 34.5967 35.5291 34.17C35.5291 33.7167 35.6424 33.32 35.8691 32.98C36.0957 32.6333 36.4024 32.3667 36.7891 32.18C37.1757 31.9933 37.6091 31.9 38.0891 31.9ZM38.1891 35.3C38.6091 35.3 38.9491 35.1867 39.2091 34.96C39.4757 34.7333 39.6091 34.4467 39.6091 34.1C39.6091 33.76 39.4791 33.48 39.2191 33.26C38.9657 33.0333 38.6124 32.92 38.1591 32.92C37.7524 32.92 37.4224 33.03 37.1691 33.25C36.9157 33.4633 36.7891 33.75 36.7891 34.11C36.7891 34.4767 36.9157 34.7667 37.1691 34.98C37.4224 35.1933 37.7624 35.3 38.1891 35.3ZM47.6823 39.1C47.1223 39.1 46.6223 38.96 46.1823 38.68C45.7423 38.3933 45.3956 37.98 45.1423 37.44C44.8889 36.8933 44.7623 36.2467 44.7623 35.5C44.7623 34.7533 44.8889 34.11 45.1423 33.57C45.3956 33.0233 45.7423 32.61 46.1823 32.33C46.6223 32.0433 47.1223 31.9 47.6823 31.9C48.2423 31.9 48.7423 32.0433 49.1823 32.33C49.6289 32.61 49.9789 33.0233 50.2323 33.57C50.4856 34.11 50.6123 34.7533 50.6123 35.5C50.6123 36.2467 50.4856 36.8933 50.2323 37.44C49.9789 37.98 49.6289 38.3933 49.1823 38.68C48.7423 38.96 48.2423 39.1 47.6823 39.1ZM47.6823 37.97C48.1823 37.97 48.5756 37.7633 48.8623 37.35C49.1556 36.9367 49.3023 36.32 49.3023 35.5C49.3023 34.68 49.1556 34.0633 48.8623 33.65C48.5756 33.2367 48.1823 33.03 47.6823 33.03C47.1889 33.03 46.7956 33.2367 46.5023 33.65C46.2156 34.0633 46.0723 34.68 46.0723 35.5C46.0723 36.32 46.2156 36.9367 46.5023 37.35C46.7956 37.7633 47.1889 37.97 47.6823 37.97ZM54.4108 39.1C53.8508 39.1 53.3508 38.96 52.9108 38.68C52.4708 38.3933 52.1241 37.98 51.8708 37.44C51.6174 36.8933 51.4908 36.2467 51.4908 35.5C51.4908 34.7533 51.6174 34.11 51.8708 33.57C52.1241 33.0233 52.4708 32.61 52.9108 32.33C53.3508 32.0433 53.8508 31.9 54.4108 31.9C54.9708 31.9 55.4708 32.0433 55.9108 32.33C56.3574 32.61 56.7074 33.0233 56.9608 33.57C57.2141 34.11 57.3408 34.7533 57.3408 35.5C57.3408 36.2467 57.2141 36.8933 56.9608 37.44C56.7074 37.98 56.3574 38.3933 55.9108 38.68C55.4708 38.96 54.9708 39.1 54.4108 39.1ZM54.4108 37.97C54.9108 37.97 55.3041 37.7633 55.5908 37.35C55.8841 36.9367 56.0308 36.32 56.0308 35.5C56.0308 34.68 55.8841 34.0633 55.5908 33.65C55.3041 33.2367 54.9108 33.03 54.4108 33.03C53.9174 33.03 53.5241 33.2367 53.2308 33.65C52.9441 34.0633 52.8008 34.68 52.8008 35.5C52.8008 36.32 52.9441 36.9367 53.2308 37.35C53.5241 37.7633 53.9174 37.97 54.4108 37.97ZM61.1393 39.1C60.5793 39.1 60.0793 38.96 59.6393 38.68C59.1993 38.3933 58.8526 37.98 58.5993 37.44C58.346 36.8933 58.2193 36.2467 58.2193 35.5C58.2193 34.7533 58.346 34.11 58.5993 33.57C58.8526 33.0233 59.1993 32.61 59.6393 32.33C60.0793 32.0433 60.5793 31.9 61.1393 31.9C61.6993 31.9 62.1993 32.0433 62.6393 32.33C63.086 32.61 63.436 33.0233 63.6893 33.57C63.9426 34.11 64.0693 34.7533 64.0693 35.5C64.0693 36.2467 63.9426 36.8933 63.6893 37.44C63.436 37.98 63.086 38.3933 62.6393 38.68C62.1993 38.96 61.6993 39.1 61.1393 39.1ZM61.1393 37.97C61.6393 37.97 62.0326 37.7633 62.3193 37.35C62.6126 36.9367 62.7593 36.32 62.7593 35.5C62.7593 34.68 62.6126 34.0633 62.3193 33.65C62.0326 33.2367 61.6393 33.03 61.1393 33.03C60.646 33.03 60.2526 33.2367 59.9593 33.65C59.6726 34.0633 59.5293 34.68 59.5293 35.5C59.5293 36.32 59.6726 36.9367 59.9593 37.35C60.2526 37.7633 60.646 37.97 61.1393 37.97ZM69.8715 36.69V37.26H72.0715V37.96H69.8715V39H68.5715V37.96H67.5715V37.26H68.5715V32H71.4515C72.3848 32 73.1115 32.2 73.6315 32.6C74.1582 33 74.4215 33.5833 74.4215 34.35C74.4215 35.11 74.1582 35.69 73.6315 36.09C73.1115 36.49 72.3848 36.69 71.4515 36.69H69.8715ZM73.1115 34.36C73.1115 33.9533 72.9682 33.6433 72.6815 33.43C72.3948 33.21 71.9815 33.1 71.4415 33.1H69.8715V35.64H71.4415C71.9748 35.64 72.3848 35.53 72.6715 35.31C72.9648 35.0833 73.1115 34.7667 73.1115 34.36Z" fill="white"/>
</svg>
