<svg width="40" height="40" viewBox="0 0 40 40" fill="none" xmlns="http://www.w3.org/2000/svg">
<path d="M20 0C8.94609 0 0 8.94508 0 20C0 31.0539 8.94508 40 20 40C31.0539 40 40 31.0549 40 20C40 8.94609 31.0549 0 20 0ZM20 37.3334C10.4424 37.3334 2.66664 29.5577 2.66664 20C2.66664 10.4423 10.4424 2.66664 20 2.66664C29.5576 2.66664 37.3334 10.4424 37.3334 20C37.3334 29.5576 29.5576 37.3334 20 37.3334Z" fill="#8ED74F"/>
<path d="M19.9996 16.3887C19.2633 16.3887 18.6663 16.9856 18.6663 17.722V28.9696C18.6663 29.7059 19.2632 30.303 19.9996 30.303C20.736 30.303 21.333 29.706 21.333 28.9696V17.722C21.3329 16.9855 20.7359 16.3887 19.9996 16.3887Z" fill="#8ED74F"/>
<path d="M19.9999 9.69678C18.5295 9.69678 17.3333 10.893 17.3333 12.3634C17.3333 13.8338 18.5295 15.0301 19.9999 15.0301C21.4703 15.0301 22.6665 13.8338 22.6665 12.3634C22.6665 10.893 21.4703 9.69678 19.9999 9.69678Z" fill="#8ED74F"/>
</svg>
