<svg width="22" height="13" viewBox="0 0 22 13" fill="none" xmlns="http://www.w3.org/2000/svg">
<path d="M17.8144 10.3608H3.29894C3.15793 10.3608 3.03259 10.2712 2.9869 10.1379L0.817027 3.80911C0.758132 3.63658 0.849872 3.44913 1.02222 3.38986C1.07507 3.37193 1.13019 3.3674 1.18135 3.37646C1.30065 3.38344 1.41183 3.45555 1.46337 3.57259C1.7316 4.18174 2.68582 6.14831 3.79898 6.14831C3.81276 6.14831 3.82673 6.14793 3.84089 6.14718C4.51233 6.11735 5.56244 5.34246 6.75224 1.82234C6.79773 1.68831 6.92326 1.59808 7.06465 1.59808C7.20622 1.59808 7.33175 1.68831 7.37725 1.82234C7.78347 3.02271 9.14505 6.12887 10.5589 6.12887C10.5627 6.12887 10.5663 6.12868 10.5702 6.12868C11.2406 6.12056 12.2712 5.36832 13.3749 1.8297C13.4182 1.69171 13.5456 1.59808 13.69 1.59808H13.6932C13.8389 1.59959 13.9663 1.69624 14.0067 1.83612C14.3441 2.99779 15.5405 6.04052 17.008 6.16756C17.8653 6.23816 18.816 5.2679 19.7545 3.35135C19.8308 3.19486 20.0161 3.12445 20.1772 3.19146C20.3378 3.2581 20.4194 3.43818 20.3631 3.60317L18.1266 10.1379C18.0807 10.2714 17.9554 10.3608 17.8144 10.3608ZM3.53452 9.70109H17.5784L18.8709 5.92462C18.2463 6.58568 17.612 6.88054 16.9506 6.82504C15.3253 6.68365 14.21 4.34162 13.6915 2.96494C12.7756 5.5216 11.7531 6.77445 10.5778 6.78823C10.5714 6.78823 10.5653 6.78861 10.5589 6.78861C8.91645 6.78861 7.64851 4.27065 7.07409 2.8817C6.09401 5.46799 5.0422 6.75387 3.87015 6.80635C3.2693 6.82957 2.74604 6.53018 2.29545 6.08602L3.53452 9.70109Z" fill="white"/>
<path d="M17.8142 13H3.29877C3.11642 13 2.96899 12.8524 2.96899 12.67V10.0309C2.96899 9.84854 3.11642 9.70111 3.29877 9.70111C3.48112 9.70111 3.62873 9.84854 3.62873 10.0309V12.3403H17.4842V10.0309C17.4842 9.84854 17.6318 9.70111 17.8142 9.70111C17.9965 9.70111 18.144 9.84854 18.144 10.0309V12.67C18.144 12.8524 17.9965 13 17.8142 13Z" fill="white"/>
<path d="M7.20097 2.25784C6.5786 2.25784 6.07214 1.75138 6.07214 1.12883C6.07214 0.506462 6.5786 0 7.20097 0C7.82352 0 8.32998 0.50665 8.32998 1.12902C8.32998 1.75138 7.82352 2.25784 7.20097 2.25784ZM7.20097 0.659929C6.94236 0.659929 6.73188 0.870404 6.73188 1.12902C6.73188 1.38781 6.94236 1.5981 7.20097 1.5981C7.45977 1.5981 7.67006 1.38763 7.67006 1.12902C7.67006 0.870216 7.45977 0.659929 7.20097 0.659929Z" fill="white"/>
<path d="M13.5924 2.25784C12.9701 2.25784 12.4636 1.75138 12.4636 1.12883C12.4636 0.506462 12.9701 0 13.5924 0C14.215 0 14.7215 0.50665 14.7215 1.12902C14.7215 1.75138 14.215 2.25784 13.5924 2.25784ZM13.5924 0.659929C13.3338 0.659929 13.1234 0.870404 13.1234 1.12902C13.1234 1.38781 13.3338 1.5981 13.5924 1.5981C13.8512 1.5981 14.0617 1.38781 14.0617 1.12902C14.0617 0.870404 13.8512 0.659929 13.5924 0.659929Z" fill="white"/>
<path d="M19.9845 3.85574C19.3619 3.85574 18.8555 3.34928 18.8555 2.72691C18.8555 2.10455 19.3619 1.59808 19.9845 1.59808C20.6068 1.59808 21.1133 2.10455 21.1133 2.72691C21.1133 3.34928 20.6068 3.85574 19.9845 3.85574ZM19.9845 2.25782C19.7257 2.25782 19.5154 2.46811 19.5154 2.72691C19.5154 2.98571 19.7257 3.196 19.9845 3.196C20.2431 3.196 20.4536 2.98571 20.4536 2.72691C20.4536 2.46811 20.2431 2.25782 19.9845 2.25782Z" fill="white"/>
<path d="M1.12883 3.85574C0.506462 3.85574 0 3.34928 0 2.72691C0 2.10455 0.506462 1.59808 1.12883 1.59808C1.75138 1.59808 2.25784 2.10455 2.25784 2.72691C2.25784 3.34928 1.75119 3.85574 1.12883 3.85574ZM1.12883 2.25782C0.870216 2.25782 0.659741 2.46811 0.659741 2.72691C0.659741 2.98571 0.870216 3.196 1.12883 3.196C1.38763 3.196 1.5981 2.98571 1.5981 2.72691C1.5981 2.46811 1.38763 2.25782 1.12883 2.25782Z" fill="white"/>
</svg>
